<svg viewBox="0 0 600 600" xmlns="http://www.w3.org/2000/svg" style="fill-rule:evenodd;clip-rule:evenodd;stroke-linejoin:round;stroke-miterlimit:2"><path d="m26.7 385.8 85.9.2c2 0 3.7 1.4 4.3 3.3l10 33.3-87.6 28.7-12.6-65.5Zm-26.6 0 13.4.1L28 466.7l147.7-51v-13.4h57.7v13.5L28.2 500l-11.8 55.2H0V385.8Zm241.4 16.6 38.6-.1V427l-142.4 72a12.2 12.2 0 0 0-6.5 8.5l-8.2 40.8c-.8 4-4.3 7-8.4 7H30.9l11-51.6 199.6-82v-19.3ZM176 363.9l-.1 18.8 104.1-.2v-12.7l-52.7-26.7a66.3 66.3 0 0 1-13 17.3c-5 4-9.7 6.8-14.4 8-4.8 1-9.8 1.1-15.4-.2a54.4 54.4 0 0 1-8.5-4.3Zm-18.9-56.8 62.6 31.9c-7.2 10.6-10.6 15.2-19.8 19.6-6.6 3-15.5 1.2-20.6-2.3a49.5 49.5 0 0 1-18.1-26.6c-2.2-7.7-4-16.5-4-22.6ZM91 221.2l216 106.9-.8 45.6-203.2-103a21 21 0 0 1-11.5-18.3l-.5-31.2ZM315.7 328c3.3-.5 6.9-2.8 10.7-7l61-74.5s9.2-10.6 20.6-16.4c13.3-7 30-5.5 30-5.5l78.4 3.6-4.3 74-38 67c-5.8 8.8-11.1 16.3-19.5 16.3L324.9 382c-5.3-.3-9.5-2.2-10.5-7.9l1.3-46.1Zm64.1-57.7c2-6.7 8.1-11.2 15-11l67.2 2.1a7.6 7.6 0 0 1 7 9.7l-17.4 60a11.8 11.8 0 0 1-11.8 8.5l-69.5-2.5a7.4 7.4 0 0 1-6.9-9.5l16.4-57.3ZM1.2 145.5c-1 5.2 1.4 10.4 6.1 12.7l306.4 150.3c4.2 2 9.1 1 12.1-2.5l55.5-66c13.6-16.1 34-25 55-24l140.9 7s-252-111.6-344.3-152.3c-22-9.8-45.5-15.3-69.5-16.4L38.2 48.8c-9.4-.5-17.8 6-19.8 15.3L1.2 145.5Zm523.4 83.3 71.7 3.4a4 4 0 0 1 2.8 6.5l-71 84a11 11 0 0 1-13.9 2.4l-3.8-2.1 9.9-19.2 4.3-75ZM16 183.8l66.7 33.9.1 30.4L23 216.3a13 13 0 0 1-7-11.6v-21Z"/></svg>
