<svg viewBox="0 0 600 600" xmlns="http://www.w3.org/2000/svg" style="fill-rule:evenodd;clip-rule:evenodd;stroke-linejoin:round;stroke-miterlimit:2"><path d="M392.6 402.8 600.2 540l-.2 60-209.7-.2 30-90.5-27.7-106.5Zm-62.5 76.6L180.2 599.7l-180.5-.2-.1-150.3L330 403.6l.1 75.8Zm0-105.8-100 14 76.8-334L474.5 0l126 122.4-77 331.7-118.7-79 15-14.6V239.1l-29.7 91-60.1 29.4v14.1Zm87.5-263.8-58.5-13.2-13.3 58.8 58.6 13.2 13.2-58.8Zm117.1 27.1-58.6-13.1-13.2 58.7 58.6 13.2 13.2-58.8ZM390.1 227 331.6 214l-13.3 58.7 58.6 13.2 13.2-58.8Zm117.6 26.8-58.5-13.2-13.3 58.8 58.6 13.2 13.2-58.8ZM122 242.3l-60 4.3 4.4 60 59.9-4.2-4.3-60.1Zm100.7 52.6L201 392.5 16.1 417.8-.5 221.6 142.7 120l107 53.4-13.4 60.2-55 4 4.4 60 37-2.6Z"/></svg>
