<svg viewBox="0 0 600 600" xmlns="http://www.w3.org/2000/svg"><path d="M137.6 251.7c-37 40.3-67.2 94.7-89.2 163-7 21.7-29.6 28.1-48.4 9l26.8-35C38.6 351.6 55.5 316 79 278c-20.3 15.6-44 43.8-65.5 72.6 98-202.8 292.8-290.5 509.2-237.2l-97.1 14.2a607.8 607.8 0 0 1 169.8 53.5 8 8 0 0 1 2.5 12.6 180 180 0 0 1-48 34.1C535 338.4 477.7 431 400.6 472.7 353.7 498 232.4 512.9 113 491.9c73.6 6.8 180.2 2.2 233.8-15 58-18.8 91.3-50.4 132-121.3a295.5 295.5 0 0 0 39-134.8 484.4 484.4 0 0 0-117.8-45 161.7 161.7 0 0 1 60.9 126.3c0 90-74.2 163-165.7 163-91.4 0-165.6-73-165.6-163 0-17.6 2.8-34.5 8-50.4Zm218.6-83c-66-6.2-125.2 8.9-175.4 44.7a146 146 0 0 0-31.7 91c0 81.3 66.6 147.4 148.6 147.4s148.7-66 148.7-147.4c0-60.9-37.2-113.1-90.2-135.7ZM311 208.2a75 75 0 0 1 75 74.7 75 75 0 0 1-150 0 75 75 0 0 1 75-74.7ZM333 251a35.6 35.6 0 0 1 35.8 35.4c0 19.5-16 35.4-35.8 35.4a35.6 35.6 0 0 1-35.8-35.4c0-19.5 16-35.4 35.8-35.4Z"/></svg>
