<svg viewBox="0 0 600 600" xmlns="http://www.w3.org/2000/svg" style="fill-rule:evenodd;clip-rule:evenodd;stroke-linejoin:round;stroke-miterlimit:2"><path d="M381.8 245.5h54.6V300h-54.6v-54.5Zm-54.5 218.1v54.6h109v-54.6h-109ZM0 463.6V300h54.5v-54.5h54.6v-54.6h54.5v-54.5h-54.5V81.8h54.5v54.6h54.6v54.5h163.6v-54.5h54.6V81.8h54.5v54.6h-54.5v54.5h54.5v54.6h54.6V300H600v163.6h-54.5v-109h-54.6v109h-54.5v-54.5H163.6v54.5h-54.5v-109H54.5v109H0Zm163.6 0v54.6h109.1v-54.6h-109Zm0-218.1h54.6V300h-54.6v-54.5Z"/></svg>
