<svg viewBox="0 0 600 600" xmlns="http://www.w3.org/2000/svg"><path d="M234 375c17.7 78.2 92.8 99.7 209.9 84.5 16.5-2.1 41.2-5 53.8-5.7 84.7-1.1 102 14.3 102.3 58.3-8.5 55-44.9 65.3-98.4 44.3-17.5-6.8-34.9-16.6-54.5-20.7-51.9-10.7-83.6-14.3-132.7 8.5-65.3 30.4-105.4 3.6-102-55.8.8-15.2 5.5-34.4 14.4-54.4 6.3-20 7.9-40.4 7.3-59ZM564.5 61.9c-20 37.7-35 98.5-41 160.7-6.1 62.1-3.4 125.5 11.8 168.3 53-27 76-314.5 29.2-329ZM426.8 48.7 555 61.4c-31.5 38.1-63.9 239.8-31.5 327.7l-125.8-12c-34.5-84.2-9.6-260.1 29-328.4ZM61 377c-19.8-38.4-34.2-99.2-41-161-6.6-61.9-5.6-124.8 5.6-167.4-52.8 14-15.3 331.9 35.4 328.4Zm137-23.5c1.5 2.9 3 5.6 4.5 8l-131.2 14C31.5 310.5 9.6 121.7 36 48.3L169.8 34c-23.3 54-11.2 210.8 17.7 294l-53.7 13.5a3.1 3.1 0 0 0 .4 6.2l63.9 5.9Zm64.8 4.4s66-10 84.8-13a4 4 0 0 0 3-5.3l-18.1-47.2 25.4-37.3a3.5 3.5 0 0 0-3-5.4l-38 .5-29.4-78.8a3.1 3.1 0 0 0-6 1.4L298 306 224.6 319c-10.9-98.8 11.3-243.8 45-285.6L418 47.9c-36.8 57.6-64.1 240.8-30.9 327.7l-119.8-11.3-4.6-6.3Z"/></svg>
