<svg viewBox="0 0 600 600" xmlns="http://www.w3.org/2000/svg"><path d="M147 114.7 300 17.2l-.2 565.6-299.5-.2L0 394.4l10-4.8.4-103.4L111 241.6l.1 107.7 13.4-6.4-.2 106.9 22.7-14.6V114.7Zm167.7-95.9L438 99.5v482.8l-123.3.2V18.8Zm133.7 348L600 415.3V580l-152.1.2.5-213.3Zm-429-59.6 33.9-16.9v41.3l-33.9 15.6v-40Zm2.3 66.6L55.6 357v41.3l-33.9 15.5v-40Zm43-20 33.8-17 .1 41.4-34 15.5v-40ZM23 433.4l33.8-16.9.1 41.3-34 15.6.1-40Zm45.5-19.6 33.8-16.8.1 41.3-34 15.5v-40Zm.1 62.9 33.8-16.8.1 41.2-34 15.6.1-40Zm396.4-66.3 47.4 17 .1 36.8-47.5-13.7v-40Zm58.3 17 47.5 17v36.7l-47.4-13.7v-40ZM465 480.1l47.5 17V534L465 520.3v-40Zm58.3 17.4 47.5 17v36.7l-47.5-13.7v-40Zm-500.2-1.3L57 479.4v41.3l-33.9 15.5v-40ZM164.6 136l46.7-30.7.1 44-46.8 29.4V136Zm-.2 73.8 46.7-30.7v44l-46.7 29.3v-42.6Zm0 74.3 46.7-30.7.2 44-46.8 29.3v-42.6Zm.2 74.4 46.7-30.7.1 44-46.8 29.4v-42.7Zm.1 73.9 46.6-30.7.2 44-46.8 29.3v-42.6Zm62.1-40.4 55-36.1.3 45.4-55.3 34.8v-44Zm0-74.3 55-36.2.1 45.4-55.2 34.8v-44Zm0-74 55.1-36.1.2 45.4-55.3 34.8v-44Zm-.1-74 55-36.1.2 45.4-55.2 34.9v-44.1Zm.2-74.2L282 59.3l.2 45.4-55.3 34.8v-44Z"/></svg>
